<svg width="18" height="18" fill="none" xmlns="http://www.w3.org/2000/svg"><path d="M18 9c0-4.974-4.025-9-9-9-4.974 0-9 4.025-9 9 0 4.93 3.992 9 9 9 4.988 0 9-4.047 9-9zM9 1.055c4.381 0 7.945 3.564 7.945 7.945a7.91 7.91 0 01-1.36 4.448c-3.55-3.818-9.614-3.825-13.17 0A7.909 7.909 0 011.055 9c0-4.381 3.564-7.945 7.945-7.945zM3.073 14.29c3.156-3.54 8.699-3.54 11.854 0a7.938 7.938 0 01-11.854 0z" fill="#251C41"/><path d="M9 9.527a3.168 3.168 0 003.164-3.164V5.31A3.168 3.168 0 009 2.145a3.168 3.168 0 00-3.164 3.164v1.054A3.168 3.168 0 009 9.527zM6.89 5.31c0-1.164.947-2.11 2.11-2.11 1.163 0 2.11.946 2.11 2.11v1.054c0 1.163-.947 2.11-2.11 2.11a2.112 2.112 0 01-2.11-2.11V5.31z" fill="#251C41"/></svg>