<svg width="25" height="22" fill="none" xmlns="http://www.w3.org/2000/svg"><path d="M24.043 13.005l-2.784-5.992 1.202.346a.5.5 0 00.274-.96l-8.355-2.41a2.188 2.188 0 00-1.627-2.227A2.175 2.175 0 0010.3 2.813L1.945.404a.5.5 0 00-.274.96l1.649.476L.333 8.268A.5.5 0 000 8.74c0 1.622.972 3.084 2.464 3.703a3.972 3.972 0 004.346-.875A3.968 3.968 0 008 8.739a.5.5 0 00-.363-.48L4.862 2.285l5.164 1.489a2.191 2.191 0 001.68 2.24v9.895h-1.373c-1.096 0-2.008.884-2.008 1.986v.29a2.011 2.011 0 00-1.59 1.959v.699a.526.526 0 00.516.512h9.903a.526.526 0 00.517-.512v-.7a2.011 2.011 0 00-1.59-1.958v-.29c0-1.102-.913-1.986-2.009-1.986H12.7V6.014a2.189 2.189 0 001.405-1.064l5.627 1.622-2.993 6.442a.5.5 0 00-.333.471c0 1.622.972 3.084 2.464 3.703a3.971 3.971 0 004.346-.875 3.969 3.969 0 001.19-2.828.5.5 0 00-.363-.48zM3.987 2.74l2.544 5.475H1.444L3.987 2.74zm0 8.982a2.977 2.977 0 01-2.951-2.508h5.926a3.02 3.02 0 01-2.975 2.508zm12.69 8.42v.212H7.728v-.212c0-.55.467-.987 1.015-.987h6.92c.548 0 1.014.437 1.014.988zm-1.59-2.248v.262H9.318v-.262c0-.55.466-.987 1.014-.987h3.74c.547 0 1.013.436 1.013.987zM12.202 5.073c-.506 0-.956-.322-1.121-.802a1.195 1.195 0 01.386-1.326 1.181 1.181 0 011.374-.067c.426.274.631.789.513 1.283a.504.504 0 00-.028.097 1.187 1.187 0 01-1.124.815zm10.734 7.889h-5.088l2.544-5.476 2.544 5.476zm-2.544 3.507a2.977 2.977 0 01-2.951-2.508h5.925a3.02 3.02 0 01-2.974 2.508z" fill="#251C41"/></svg>