<svg width="24" height="22" fill="none" xmlns="http://www.w3.org/2000/svg"><path d="M12 21.703c-.33 0-.65-.122-.899-.342-.939-.83-1.844-1.61-2.642-2.3l-.005-.003c-2.341-2.019-4.363-3.762-5.77-5.48C1.11 11.659.378 9.839.378 7.85c0-1.932.655-3.714 1.844-5.019A6.217 6.217 0 016.872.784c1.341 0 2.57.429 3.652 1.275A7.52 7.52 0 0112 3.62c.436-.61.93-1.133 1.477-1.56 1.081-.846 2.31-1.275 3.652-1.275 1.795 0 3.446.727 4.649 2.047 1.189 1.305 1.844 3.087 1.844 5.02 0 1.988-.733 3.808-2.305 5.728-1.407 1.717-3.43 3.46-5.77 5.479-.8.69-1.708 1.471-2.649 2.303-.248.22-.567.342-.898.342zM6.872 2.16a4.88 4.88 0 00-3.649 1.604c-.956 1.05-1.483 2.5-1.483 4.085 0 1.673.614 3.168 1.992 4.85 1.332 1.625 3.312 3.333 5.605 5.31l.005.003c.801.692 1.71 1.475 2.656 2.312.952-.838 1.862-1.623 2.665-2.316 2.293-1.977 4.274-3.684 5.605-5.31 1.378-1.68 1.992-3.176 1.992-4.849 0-1.585-.527-3.036-1.483-4.085a4.877 4.877 0 00-3.648-1.604c-1.034 0-1.982.332-2.82.987-.746.585-1.266 1.323-1.57 1.84a.85.85 0 01-.739.424.85.85 0 01-.738-.424c-.305-.517-.825-1.255-1.571-1.84-.838-.655-1.786-.987-2.82-.987z" fill="#251C41"/></svg>