<svg width="14" height="15" viewBox="0 0 14 15" fill="none" xmlns="http://www.w3.org/2000/svg">
<g clip-path="url(#clip0)">
<path d="M13.7011 5.85812C13.6112 5.57618 13.3645 5.37593 13.0726 5.34926L9.10774 4.98436L7.53994 1.26484C7.42434 0.992248 7.16107 0.815796 6.86855 0.815796C6.57604 0.815796 6.31276 0.992248 6.19716 1.26548L4.62936 4.98436L0.663903 5.34926C0.372541 5.37657 0.126456 5.57618 0.0360079 5.85812C-0.0544401 6.14006 0.0290907 6.4493 0.249499 6.64424L3.24644 9.30833L2.36271 13.2541C2.29805 13.5442 2.40914 13.8441 2.64663 14.0181C2.77429 14.1116 2.92364 14.1592 3.07424 14.1592C3.2041 14.1592 3.33291 14.1237 3.44851 14.0536L6.86855 11.9818L10.2873 14.0536C10.5375 14.2062 10.8529 14.1923 11.0898 14.0181C11.3274 13.8436 11.4384 13.5436 11.3738 13.2541L10.49 9.30833L13.487 6.64477C13.7074 6.4493 13.7915 6.14059 13.7011 5.85812Z" fill="#FFC107"/>
</g>
<defs>
<clipPath id="clip0">
<rect width="13.7368" height="13.9237" fill="white" transform="translate(0 0.516968)"/>
</clipPath>
</defs>
</svg>
