<svg width="27" height="27" fill="none" xmlns="http://www.w3.org/2000/svg"><path d="M9.924 20.42a2.81 2.81 0 00-2.816 2.803 2.81 2.81 0 002.816 2.804 2.81 2.81 0 002.815-2.804 2.813 2.813 0 00-2.815-2.804zm0 4.39a1.59 1.59 0 01-1.593-1.587 1.59 1.59 0 011.593-1.586c.88 0 1.593.71 1.593 1.586a1.592 1.592 0 01-1.593 1.587zm11.081-4.39a2.81 2.81 0 00-2.816 2.803 2.81 2.81 0 002.816 2.804 2.81 2.81 0 002.815-2.804 2.813 2.813 0 00-2.815-2.804zm0 4.39a1.59 1.59 0 01-1.593-1.587 1.59 1.59 0 011.593-1.586c.88 0 1.593.71 1.593 1.586a1.592 1.592 0 01-1.593 1.587zm4.573-19.378H6.41l-.415-2.438A3.045 3.045 0 002.982.459h-1.75a.61.61 0 100 1.218h1.75a1.827 1.827 0 011.808 1.52l2.213 12.986a3.045 3.045 0 003.013 2.534h13.031a.61.61 0 00.611-.608.61.61 0 00-.61-.61H10.015a1.826 1.826 0 01-1.808-1.52l-.222-1.305h12.777a3.655 3.655 0 003.492-2.537l1.905-5.91a.607.607 0 00-.582-.795zm-2.487 6.333a2.437 2.437 0 01-2.328 1.691H7.778L6.618 6.65H24.74l-1.649 5.116z" fill="#251C41"/></svg>