<svg width="14" height="15" fill="none" xmlns="http://www.w3.org/2000/svg"><g clip-path="url(#clip0)"><path d="M13.701 5.858a.73.73 0 00-.628-.509l-3.965-.365-1.568-3.72a.73.73 0 00-.671-.448.73.73 0 00-.672.45L4.63 4.983.664 5.35a.732.732 0 00-.628.51.746.746 0 00.213.785l2.997 2.664-.883 3.946c-.065.29.046.59.284.764a.722.722 0 00.802.036l3.42-2.072 3.418 2.072c.25.152.566.138.803-.036a.746.746 0 00.284-.764l-.884-3.946 2.997-2.663a.747.747 0 00.214-.787z" fill="#FFC107"/></g><defs><clipPath id="clip0"><path fill="#fff" transform="translate(0 .517)" d="M0 0h13.737v13.924H0z"/></clipPath></defs></svg>