<svg width="21" height="20" fill="none" xmlns="http://www.w3.org/2000/svg"><path d="M4.307 9.844c-.967 0-1.846.816-1.846 1.846v6.152c0 .993.872 1.846 1.846 1.846a1.848 1.848 0 001.845-1.846V11.69a1.848 1.848 0 00-1.845-1.846z" fill="#fff"/><path d="M10.541 0C4.774 0 0 4.692 0 10.459v.016a3.046 3.046 0 011.846-.631 3.079 3.079 0 012.098-1.188c.79-2.858 3.49-4.965 6.597-4.965s5.724 2.107 6.515 4.965a3.08 3.08 0 012.097 1.188h.001c.695 0 1.33.24 1.846.63v-.015C21 4.692 16.308 0 10.541 0z" fill="#fff"/><path d="M16.693 9.844a1.848 1.848 0 00-1.845 1.846v6.152c0 1.018.828 1.846 1.845 1.846.988 0 1.846-.86 1.846-1.846V11.69c0-1.039-.886-1.846-1.846-1.846zM0 12.264v3.691c0 .8.516 1.476 1.23 1.73v-7.152A1.84 1.84 0 000 12.263zm19.77-1.731v7.153a1.84 1.84 0 001.23-1.73v-3.692a1.84 1.84 0 00-1.23-1.73z" fill="#fff"/></svg>